<?xml version="1.0" standalone="no"?>
<!DOCTYPE svg PUBLIC "-//W3C//DTD SVG 20010904//EN"
 "http://www.w3.org/TR/2001/REC-SVG-20010904/DTD/svg10.dtd">
<svg version="1.0" xmlns="http://www.w3.org/2000/svg"
 width="277.000000pt" height="256.000000pt" viewBox="0 0 277.000000 256.000000"
 preserveAspectRatio="xMidYMid meet">

<g transform="translate(0.000000,256.000000) scale(0.100000,-0.100000)"
fill="#000000" stroke="none">
<path d="M1235 2449 c-211 -27 -431 -131 -589 -279 l-64 -60 -172 0 c-151 0
-171 -2 -166 -15 3 -9 37 -69 76 -135 38 -65 70 -125 70 -134 0 -8 -9 -36 -20
-61 -33 -77 -60 -192 -72 -306 -38 -374 130 -761 431 -990 130 -98 344 -188
488 -204 97 -10 102 -13 134 -65 17 -28 32 -50 34 -50 2 0 15 21 31 48 15 26
28 49 30 51 2 2 44 10 93 17 632 94 1048 744 882 1375 -12 42 -29 97 -40 122
l-19 45 84 143 c46 79 84 147 84 152 0 4 -82 7 -181 7 l-181 0 -64 60 c-232
216 -552 319 -869 279z m281 -200 c89 -15 180 -47 269 -93 l80 -41 -242 -3
c-133 -1 -353 -1 -490 0 l-248 3 73 38 c177 93 379 128 558 96z m592 -386 c22
-33 28 -51 22 -62 -130 -230 -740 -1256 -746 -1255 -5 1 -178 290 -386 644
l-376 643 25 39 26 38 702 0 703 0 30 -47z m-1249 -823 c182 -310 328 -566
326 -568 -2 -2 -34 6 -72 18 -391 129 -643 500 -620 914 5 91 24 212 32 204 2
-2 152 -257 334 -568z m1390 465 c67 -451 -182 -868 -602 -1011 -38 -13 -67
-20 -65 -15 10 26 644 1100 649 1101 4 0 12 -34 18 -75z"/>
<path d="M1361 1784 c-218 -30 -312 -66 -356 -132 -14 -21 -33 -73 -42 -116
-16 -76 -16 -79 2 -92 21 -16 195 -20 195 -5 0 9 -48 21 -86 21 -14 0 -24 6
-24 15 0 17 113 55 257 85 109 23 388 38 412 22 11 -8 2 -24 -40 -78 -201
-254 -368 -528 -401 -655 -10 -41 -9 -51 5 -73 36 -54 88 -20 156 99 36 62 42
78 30 86 -11 7 -6 24 30 91 58 108 220 376 276 457 52 73 55 97 22 186 -18 50
-28 63 -60 78 -52 26 -237 31 -376 11z"/>
</g>
</svg>
